<svg version="1.2" xmlns="http://www.w3.org/2000/svg" viewBox="50 505 1100 190" width="232" height="40">
	<title>logo_en-svg</title>
	<style>
		.s0 {
			fill: #000000
		}
	</style>
	<path id="Layer" class="s0" d="m351.4 597.4h-34.4v-25.9h-17.8v66.2h17.8v-25.7h34.4v25.7h17.8v-66.2h-17.8z" />
	<path id="Layer" class="s0" d="m409.4 594.4l-14.7-22.9h-19.6l25.3 40.5v25.7h17.8v-25.7l25.4-40.5h-19.7z" />
	<path id="Layer" class="s0"
		d="m512.1 576.4q-3-2.3-7.1-3.6-4-1.3-8.7-1.3h-46.8v14.7h43.8q3.2 0 5.7 1.3 2.4 1.3 2.4 4.3 0 2.9-2.4 4.2-2.5 1.4-5.7 1.4h-43.8v40.3h17.8v-25.7h29q4.7 0 8.7-1.2 4.1-1.2 7.2-3.6 3-2.4 4.9-5.9 1.9-3.6 2.4-8.1v-2.8q-0.6-4.5-2.5-8.1-1.9-3.5-4.9-5.9z" />
	<path id="Layer" class="s0" d="m527.8 637.7h63.1v-14.6h-45.4v-11.1h45.4v-14.7h-63.1z" />
	<path id="Layer" class="s0"
		d="m661.9 607.3q6.5-4.8 7.3-14.1v-2.8q-0.6-4.5-2.4-8.1-1.9-3.5-4.9-5.9-3-2.3-7.1-3.6-4-1.3-8.8-1.3h-55.1-63.1v14.7h63.1 52.1q3.3 0 5.7 1.3 2.5 1.3 2.5 4.3 0 2.9-2.5 4.2-2.4 1.4-5.7 1.4h-43.7v40.3h17.7v-25.7h4.9l25.9 25.7h21.7l-25.2-25.7q11.1 0 17.6-4.7z" />
	<path id="Layer" class="s0"
		d="m741.1 577.2q-3.1-2.8-7.3-4.2-4.3-1.5-9.4-1.5h-46.9v14.7h43.9q4.1 0 6.2 2.2 2.2 2.1 2.2 6.2v20q0 4.2-2.2 6.3-2.1 2.2-6.2 2.2h-26.1v-25.8h-17.8v40.4h46.9q5.1 0 9.4-1.4 4.2-1.4 7.3-4.1 3-2.8 4.7-6.8 1.7-4.1 1.7-9.3v-22.9q0-5.2-1.7-9.2-1.7-4-4.7-6.8z" />
	<path id="Layer" class="s0"
		d="m808 623.1h-26q-4.1 0-6.2-2.2-2.2-2.1-2.2-6.3v-43.1h-17.8v44.6q0 5.2 1.7 9.3 1.7 4 4.7 6.8 3.1 2.7 7.3 4.1 4.3 1.4 9.4 1.4h46.9v-66.2h-17.8z" />
	<path id="Layer" class="s0"
		d="m854.4 571.5l-22.7 66.2h17.7l17-50.1 12 35.5h-12.9l-4.6 14.6h22.5 8.2 9.6l-22.9-66.2z" />
	<path id="Layer" class="s0"
		d="m924.8 620.9q-2.2-2.1-2.2-6.3v-43.1h-17.7v44.6q0 5.2 1.7 9.3 1.7 4 4.7 6.8 3.1 2.7 7.3 4.1 4.3 1.4 9.4 1.4h40v-14.6h-37q-4.1 0-6.2-2.2z" />
	<path id="Layer" class="s0" d="m976.3 586.2v51.5h17.8v-51.5-14.7h-17.8z" />
	<path id="Layer" class="s0" d="m1002.4 586.2h26.1v51.5h17.8v-51.5h26.1v-14.7h-70z" />
	<path id="Layer" class="s0" d="m1127.1 571.5l-14.5 22.9-14.7-22.9h-19.6l25.3 40.5v25.7h17.8v-25.7l25.4-40.5z" />
	<path id="Layer" class="s0"
		d="m230.6 536.8l-45-26.9v52.6l-119.9 67.6v-34.6l32.3-18.9v29l43.8-24.6v-42.9l-43.8-25.4v49.5l-44.8 25.4v63.8l177.4-92.2z" />
	<path id="Layer" class="s0"
		d="m98 663.2l45 26.9v-52.6l119.9-67.6v34.6l-32.3 18.9v-29l-43.8 24.6v42.9l43.8 25.4v-49.5l44.8-25.4v-63.8l-177.4 92.2z" />
</svg>