<svg xmlns="http://www.w3.org/2000/svg" width="105" height="32" viewBox="0 0 751.8 227"
    class="hidden h-7.5 w-auto sm:block transition-colors duration-300">
    <g>
        <g>
            <path d="M271,226v-59.6h12.1v49.5h30v10.1h-42.1Z" fill="#717071"></path>
            <path d="M321.8,226v-60.1h44.4v10.2h-32.3v13.3h30v10.1h-30v16.4h33.4v10.1h-45.5Z" fill="#717071"></path>
            <path
                d="M431.5,226h-13.1l-5.2-13.6h-23.9l-4.9,13.6h-12.8l23.3-60.1h12.8l24,60.1Zm-22.2-23.8l-8.2-22.3-8.1,22.3h16.3Z"
                fill="#717071"></path>
            <path
                d="M437.8,165.9h22.1c5,0,8.8,.4,11.4,1.1,3.5,1,6.5,2.9,9,5.5,2.5,2.6,4.4,5.9,5.7,9.7,1.3,3.8,2,8.6,2,14.2s-.6,9.2-1.8,12.8c-1.5,4.4-3.6,7.9-6.4,10.6-2.1,2-4.9,3.6-8.5,4.8-2.7,.8-6.2,1.3-10.7,1.3h-22.7v-60.1Zm12.1,10.2v39.8h9c3.4,0,5.8-.2,7.3-.6,2-.5,3.6-1.3,4.9-2.5,1.3-1.2,2.3-3.1,3.2-5.8,.8-2.7,1.2-6.4,1.2-11s-.4-8.2-1.2-10.7c-.8-2.5-2-4.4-3.4-5.8-1.5-1.4-3.3-2.3-5.6-2.8-1.7-.4-5-.6-9.9-.6h-5.4Z"
                fill="#717071"></path>
            <path d="M513.5,226l-21.4-60.1h13.1l15.1,44.5,14.7-44.5h12.8l-21.4,60.1h-12.9Z" fill="#717071"></path>
            <path d="M553.6,226v-60.1h12.1v60.1h-12.1Z" fill="#717071"></path>
            <path
                d="M574.2,206.4l11.8-1.1c.7,4,2.1,6.9,4.3,8.7,2.2,1.9,5.1,2.8,8.8,2.8s6.8-.8,8.8-2.5c2-1.7,3-3.6,3-5.8s-.4-2.6-1.2-3.6c-.8-1-2.3-1.9-4.3-2.6-1.4-.5-4.6-1.4-9.7-2.6-6.5-1.6-11-3.6-13.6-5.9-3.7-3.3-5.5-7.3-5.5-12.1s.9-5.9,2.6-8.6c1.7-2.7,4.2-4.7,7.5-6.1,3.3-1.4,7.2-2.1,11.8-2.1,7.5,0,13.2,1.7,17,5,3.8,3.3,5.8,7.7,6,13.2l-12.1,.5c-.5-3.1-1.6-5.3-3.3-6.7-1.7-1.4-4.3-2-7.7-2s-6.3,.7-8.2,2.2c-1.3,.9-1.9,2.2-1.9,3.7s.6,2.6,1.8,3.6c1.5,1.3,5.2,2.6,11.1,4,5.9,1.4,10.2,2.8,13,4.3,2.8,1.5,5,3.5,6.6,6.1,1.6,2.6,2.4,5.8,2.4,9.6s-1,6.7-2.9,9.7c-1.9,3-4.6,5.2-8.1,6.7-3.5,1.5-7.8,2.2-13,2.2-7.6,0-13.4-1.8-17.4-5.3-4.1-3.5-6.5-8.6-7.3-15.3Z"
                fill="#717071"></path>
            <path
                d="M630.5,196.3c0-6.1,.9-11.3,2.7-15.4,1.4-3.1,3.2-5.8,5.6-8.2,2.4-2.4,4.9-4.2,7.7-5.4,3.7-1.6,8-2.4,12.9-2.4,8.8,0,15.9,2.7,21.2,8.2,5.3,5.5,7.9,13.1,7.9,22.9s-2.6,17.3-7.9,22.8c-5.3,5.5-12.3,8.2-21.1,8.2s-16-2.7-21.2-8.2c-5.3-5.4-7.9-13-7.9-22.5Zm12.4-.4c0,6.8,1.6,12,4.7,15.5,3.1,3.5,7.1,5.3,11.9,5.3s8.8-1.7,11.9-5.2c3.1-3.5,4.6-8.7,4.6-15.7s-1.5-12-4.5-15.4c-3-3.4-7-5.1-12-5.1s-9,1.7-12,5.1c-3,3.4-4.6,8.6-4.6,15.5Z"
                fill="#717071"></path>
            <path
                d="M698,226v-60.1h25.4c6.4,0,11,.5,13.9,1.6,2.9,1.1,5.2,3,7,5.8,1.7,2.8,2.6,5.9,2.6,9.5s-1.3,8.2-4,11.2c-2.6,2.9-6.6,4.8-11.8,5.6,2.6,1.5,4.8,3.2,6.5,5,1.7,1.8,4,5.1,6.9,9.8l7.3,11.7h-14.4l-8.7-13.1c-3.1-4.7-5.2-7.6-6.4-8.8-1.1-1.2-2.4-2-3.6-2.5-1.3-.5-3.3-.7-6.1-.7h-2.4v25.1h-12.1Zm12.1-34.7h8.9c5.8,0,9.4-.2,10.9-.7,1.4-.5,2.6-1.3,3.4-2.5,.8-1.2,1.2-2.7,1.2-4.5s-.5-3.7-1.6-4.9c-1.1-1.2-2.6-2-4.6-2.4-1-.1-3.9-.2-8.8-.2h-9.4v15.2Z"
                fill="#717071"></path>
        </g>
        <path
            d="M339.4,42.9l-10.9,9.5c-9.1-12.6-14.1-18.4-21.2-24.7-8,13-16.1,24.2-27.8,38.2-2.5-4.4-4.8-6.9-8.3-9.5,20.1-20.2,27.2-32.8,32.1-52,4.5,2.1,11.7,4.6,15.8,5.2,2.5,.3,2.6,1.2,.2,2.8-1.7,1.1-4.1,3.4-6.6,6.6,9.1,7.7,17,14.7,26.7,23.9Zm-24.7,44h-11.1c-10,0-17.7,.5-25.6,1.4v-12.6c6.6,.8,13.2,1.1,26.6,1.1s20.6-.3,26.6-1.1l-22.3,46.3c5.5,7.8,6.6,9.5,10,15.2l-11.8,6.6c-8.1-16.9-13.7-25.9-25.3-39.2l10.1-6c2.8,3.4,5.8,7.7,10.1,13.6l12.7-25.3Zm-11.5-17.3c-.3-6.9-1.4-12.9-3.5-18.2l12.4-3.1c1.4,6.4,3.1,12,5.8,18.5l-14.7,2.8Zm29.3-39.5v-13.5c18.6,1.4,24,1.5,39.5,1.5s29.8-.6,39.5-1.5v13.5c-12.4-1.2-34.4-1.7-53.6-1.1l-2,22.2h26.3c4.9,0,11.2-.5,16.3-1.1l-6.4,67.1c-1.1,12.7-.8,13.3,3.1,13.3,7.7,0,8.1-.5,9.5-12.3,2.8,1.8,7.1,3.5,10.7,4-6,20.4-6.6,20.7-23.5,20.2-12.7-.3-13.7-1.8-12.3-17.8l5.2-63.1h-29.9l-5.8,63.3c9.1-4.8,15.2-8.7,20.6-12.7,.8,4.8,1.5,8,3.5,11l-23.2,13.9c-4.6,2.8-6.4,4.1-9.5,7.8-2.6-5.5-3.8-7.5-8.3-12.6,4-2.9,4.6-4,5.5-13.3l8.8-90c-5.2,.3-9.7,.6-13.8,.9Zm32.1,72.5c-1.4-13.5-2.1-17.2-5.2-27.9l11.2-1.7c1.8,10.9,2.8,14.9,6.1,27.6l-12.1,2Z"
            fill="#717071"></path>
        <path
            d="M478.9,143.3h-12.6c1.1-8.6,1.4-15.8,1.4-24.7v-37.1c-4.5,6.6-8.1,11-11.8,15.5-1.4-4-4.3-8.9-6.9-11.5,8-5.8,17.4-17.3,22-24.7,5.2-8.4,8.4-14.9,10.9-22.7,3.4,3.4,7.4,6.1,11.2,7.5,2.1,.8,2.5,2.5-.3,3.2-1.7,.5-4.5,2.9-13.8,16.6v77.8Zm-3.8-108.3c-5.8,7.4-12.9,16.2-16.1,20.7-2.3-4.9-4.5-7.7-8.4-10.3,12.9-10.7,23.8-26.2,26.7-37.5,4.6,2.6,10.3,5.1,13.1,5.8,2.9,.8,2.6,1.5,.3,2.9-1.1,.6-2.5,2.1-15.5,18.4Zm21.3,103.6l-12.9-4.8c5.8-8.1,10.4-19.9,12-28.8l11.1,2c-4.3,12-8.3,24.2-10.1,31.6Zm85.4-43.8c-8.8-.6-17.4-.9-45.8-.9s-36.2,.3-45.1,.9v-10.7c8.8,.6,16.9,.9,45.3,.9s37-.2,45.6-.6v10.4Zm-45.3-53.5c20.6,.2,25.6,0,41.6-.9-.5,6-.6,12.6-.6,18.2s.2,12.3,.6,18.2c-15.5-.9-20-.9-39.6-.9s-24.1,0-39.6,.9c.5-6,.6-12.6,.6-18.2s-.2-12.3-.6-18.2c11.8,.8,17.2,.9,27.8,.9,.8-4,1.5-7.8,2-11.3-19.2,.2-26.4,.5-34.1,.9v-10.7c7.5,.6,14.7,.8,35.2,.9,.5-6.4,.5-11.8-.3-15.6,5.2,1.5,11.5,2.6,14.4,2.5,2.9-.2,3.5,1.1,.9,2.8-1.2,.8-2,2.5-4,10.4,26.4,0,34.9-.2,43.1-.6v10.4c-8.4-.6-17.2-.9-45.5-.9-.9,4.3-1.5,7.8-2,11.3Zm-27.2,8.6v17.5h13.1v-17.5h-13.1Zm27.8,89.6c-22.6,0-25.2-2.6-25.2-12.1v-15.9c0-3.4-.2-6-.5-8.7,4.1,1.1,8.3,1.4,11.8,1.2,2-.2,2.5,.5,.2,3.4-.3,.3-1.1,3.4-1.1,5.7v11.6c0,4.3,1.7,5.4,14.9,5.4s18.3-1.2,18.9-13c2.9,3.7,6.6,5.1,11.7,5.5-4.6,14.3-8.6,17-30.7,17Zm.8-19.2c-1.2-7.4-4.3-15.2-7.5-20.1l12.3-3.5c1.8,6.1,3.7,10.7,8,19l-12.7,4.6Zm-6.1-70.5v17.5h12.9v-17.5h-12.9Zm22.6,0v17.5h13.1v-17.5h-13.1Zm23.6,82.6c-3.5-7.5-13.7-20.8-19.5-25.4l9.8-7c5.5,7,13.1,15.2,21.8,23.1l-12.1,9.3Z"
            fill="#717071"></path>
    </g>
    <path d="M64.8,170.4h-9.3V57.1c-.1,0,25.4,3.2,35.1,7.7,2.9,1.4,5.7,3,8,5.2,3.5,3.4,4.9,8,4.9,12.8v87.6h-38.7Z"
        fill="#8388c2"></path>
    <path d="M170.6,226.3H31.6c-17.5,0-31.6-14.3-31.6-32V.1H48.2V177.5h122.4v48.8Z" fill="#6562a9"></path>
    <path
        d="M174,48.3C142.9,19.3,100.9,2.3,54.8,0V48.9c70.7,4.6,122.8,53.8,122.8,118.1v59.3h48.2v-59.3c0-45.3-18.4-87.5-51.8-118.6Z"
        fill="#b8b4d7"></path>
</svg>